<?xml version="1.0" ?><svg xmlns="http://www.w3.org/2000/svg" width="400" height="400" viewBox="0 0 172.05472 342.70883">
    <path d="m -5790.1676,1622.1296 c 1.7563,-3.5066 16.685,-4.0805 21.8442,-3.3154 5.1592,0.7651 14.2702,4.6542 14.819,8.9897 0.5489,4.3354 -11.7454,8.7983 -22.0638,6.3756 -10.3184,-2.4228 -17.0144,-7.7783 -14.5994,-12.0499 z" fill="#bcc8d4" paint-order="fill markers stroke" transform="translate(6.7434473,321.1129) translate(5913.6347,-1748.3779)"/>
    <path d="m -5790.8262,1627.0388 c 0,0 9.4402,5.9293 13.2821,6.8856 3.842,0.9564 14.4897,0.064 19.7587,-1.2113 5.269,-1.2752 6.4764,-1.7214 6.4764,-1.7214 0,0 2.415,8.6708 -0.6586,10.9023 -3.0736,2.2314 -13.7213,3.2515 -19.3196,2.5502 -5.5982,-0.7013 -14.0506,-3.5066 -17.7827,-5.1643 -3.7322,-1.6576 -1.7563,-12.2411 -1.7563,-12.2411 z" fill="#6c6b74" paint-order="fill markers stroke" transform="translate(6.7434473,321.1129) translate(5913.6347,-1748.3779)"/>
    <path d="m -5835.7042,1485.6496 c -6.7388,-5.9263 -28.3096,-4.3686 -34.1808,1.0743 -5.7635,5.343 -30.8567,29.0142 -34.451,32.7767 -3.5944,3.7624 4.4101,13.1687 4.4101,13.1687 0,0 -7.9028,11.7 -10.248,21.0142 -2.3453,9.3145 -6.5977,53.068 -6.8781,73.6467 -0.2804,20.5787 1.5543,16.9081 6.5252,21.3129 0,0 4.4701,2.3748 8.2429,3.2236 3.7727,0.8489 11.0121,4.9781 18.5322,8.8093 7.52,3.8313 27.1487,2.4551 27.1487,2.4551 l 2.2433,-5.0017 c 0,0 4.5379,-0.7799 8.0812,-1.0093 3.5433,-0.2294 17.589,-5.8274 23.0187,-9.3834 5.4298,-3.5559 3.9847,-12.5263 3.1435,-18.1239 -0.8413,-5.5979 -6.2932,-65.2188 -6.2932,-65.2188 0,0 6.9049,-3.4916 9.709,-4.0881 2.8041,-0.5965 1.9374,-3.7855 0.7648,-7.8233 -1.1726,-4.0377 -1.2298,-19.3807 0.1219,-25.337 1.4962,-6.5931 0.6564,-23.1116 -4.0833,-25.0585 -5.4829,-1.8329 -12.3206,-6.4508 -15.8071,-16.4375 z" fill="#897851" transform="translate(6.7434473,321.1129) translate(5913.6347,-1748.3779)"/>
    <path d="m -5824.7316,1467.1478 18.8804,15.7477 12.0748,15.3652 c 0,0 -4.5006,3.7617 -13.7213,4.2717 -9.2207,0.51 -22.6127,-3.0603 -25.2471,-7.0132 -2.6346,-3.9528 -4.7202,-15.4289 -3.4029,-20.7207 1.3172,-5.2917 11.4161,-7.6507 11.4161,-7.6507 z" fill="#e3c6a5" paint-order="fill markers stroke" transform="translate(6.7434473,321.1129) translate(5913.6347,-1748.3779)"/>
    <path d="m -5803.9444,1530.4088 c 0,0 8.4523,-8.7984 12.404,-8.9259 3.9518,-0.1275 8.6719,6.3756 4.5006,10.711 -4.1712,4.3354 -10.2086,6.5669 -13.7212,5.1643 -3.5127,-1.4027 -3.1834,-6.9494 -3.1834,-6.9494 z" fill="#a05a2c" paint-order="fill markers stroke" transform="translate(6.7434473,321.1129) translate(5913.6347,-1748.3779)"/>
    <path d="M-5825.8984 1450.0123c-7.2449-.3187-12.8431-3.5065-10.2087-8.862 2.6345-5.3556 18.9903-8.2883 18.9903-8.2883 0 0 18.3316-4.3355 25.3569-2.4228 7.0253 1.9127 13.0627 4.5905 13.0627 4.5905 0 0 6.696-2.9328 7.9034-.5738 1.2075 2.3589-.3293 9.4996-.3293 9.4996 0 0 5.7081 8.2883 6.4764 12.7512.7684 4.463-6.2569 23.6535-6.2569 23.6535 0 0 6.0374 15.3015 4.3908 20.2745-1.6465 4.9729-5.4884 8.5433-11.6356 6.8219-6.1471-1.7215-14.1603-7.9695-16.7948-11.8587-2.6345-3.8891-12.7334-16.5765-14.9288-17.4691-2.1954-.8926-15.1483-14.0264-16.0264-17.788-.8782-3.7616 0-10.3285 0-10.3285zM-5851.8413 1630.0322c5.8048-2.2477 5.9481-7.2425 7.5964-12.2374 1.6483-4.9948 5.1598-34.4227 6.4498-38.7099 1.2899-4.2872 3.3682-29.5527 5.0881-32.6745 1.72-3.1217 4.2999-13.6525 5.8048-17.3986 1.505-3.7461 2.3649-13.5277 2.7233-18.689.3583-5.1613-3.2249-10.1561-3.2249-10.1561l-3.5116-2.2894c0 0-4.5865 16.15-5.6614 22.2686-1.075 6.1187-12.6846 42.5394-14.4045 47.8672-1.72 5.3278-3.2966 9.5734-3.5116 21.8107-.215 12.2373-1.9349 40.1667-1.9349 40.1667z" fill="#504026" paint-order="fill markers stroke" transform="translate(6.7434473,321.1129) translate(5913.6347,-1748.3779)"/>
    <path d="m -5795.5297,1427.2655 v 0 c -3.7852,-0.021 -7.8498,0.715 -12.0964,2.2133 -1.9166,0.6761 -6.1074,1.3946 -9.3126,1.5978 -12.2742,0.7755 -21.3295,5.677 -21.3295,11.5451 0,1.5952 0.5871,3.3871 1.3043,3.9822 1.13,0.9382 1.1347,1.2506 0.037,2.3487 -0.6975,0.6965 -1.0527,1.8221 -0.7922,2.5011 1.0692,1.0199 3.9438,3.8327 -1.3007,3.0086 -1.5862,-0.2493 -2.3005,2.9399 -1.2831,3.6525 3.1553,2.2101 2.4251,3.1698 -1.0604,3.0122 -2.608,-0.1179 -1.0688,4.5184 2.2629,6.4864 2.9818,1.7612 3.1024,2.4033 1.2749,6.7774 -1.56,3.7337 -1.7193,11.0731 -0.3494,16.0812 0.6275,2.294 2.4799,5.0083 5.254,7.6992 4.7359,4.5944 10.0033,6.6866 19.0123,7.552 2.9232,0.2808 5.6074,0.9504 5.9655,1.4878 1.0549,1.5836 0.7722,5.7536 -0.5654,8.3401 -1.877,3.6296 -2.5682,10.0536 -1.5063,13.9965 1.4318,5.3171 5.4588,8.9256 10.9895,9.8475 8.0107,1.3351 13.6853,-0.925 16.3494,-6.5118 1.4174,-2.9727 1.5183,-4.1504 -0.1437,-7.2543 -2.0585,-3.8444 -7.4586,-5.9365 -10.7693,-5.1056 -1.2127,0.3044 -3.7384,1.9385 -5.6121,3.6313 -1.8739,1.6929 -3.6391,3.0778 -3.9233,3.0778 -1.3801,0 -1.545,-6.1706 -0.2336,-8.7064 1.4446,-2.8781 1.9518,-8.9051 1.138,-11.1296 -1.2521,-2.4539 0.7159,-3.4283 0.7896,-2.083 l 0.1633,2.9796 c 0.1239,2.2649 -0.2258,3.9099 1.1307,4.3367 2.8622,0.9084 4.5491,-1.1509 4.226,-5.1609 -0.2063,-2.5619 0.1261,-3.7612 1.2408,-4.47 1.236,-0.7865 2.0707,-0.4391 4.4292,1.8433 9.4529,9.1493 23.1696,6.5891 26.3467,-4.9171 0.7342,-2.659 0.4329,-4.6305 -1.8232,-11.9413 l -2.7021,-8.7571 3.1709,-6.0338 c 4.1854,-7.9647 4.7349,-12.3202 2.3528,-18.651 -1.0195,-2.7095 -3.0375,-6.1372 -4.484,-7.6171 -2.3749,-2.4289 -2.5068,-2.854 -1.356,-4.3744 1.7845,-2.3575 1.6341,-5.9858 -0.3503,-8.4362 -1.5545,-1.9199 -1.9614,-2.0023 -5.3821,-1.0893 -3.4915,0.9321 -3.9466,0.8219 -8.0554,-1.9431 -3.7353,-2.5136 -8.1402,-3.7903 -13.0069,-3.8168 z m -1.9911,5.6999 v 0 c 5.5718,-0.031 7.3937,0.355 11.2939,2.3963 3.4209,1.7906 4.6504,2.9396 4.6504,4.3454 0,1.8966 -0.016,1.895 -2.2821,-0.2335 -1.9228,-1.8066 -3.352,-2.1924 -9.0795,-2.4505 -5.9454,-0.2679 -7.6628,0.038 -13.7056,2.4407 -3.7995,1.5107 -7.985,3.4149 -9.3008,4.2312 -1.3157,0.816 -3.2897,2.2771 -4.3857,3.2463 l -1.9932,1.7622 v -2.2934 c 0,-2.5943 4.9281,-6.6435 13.2876,-10.9177 4.0272,-2.0592 6.0231,-2.498 11.515,-2.528 z m 23.2699,2.7771 v 0 c 0.6279,-0.035 1.2541,0.083 1.8077,0.3928 1.9422,1.0865 1.896,2.7664 -0.1256,4.5961 -2.5734,2.3289 -5.4664,1.5004 -5.4664,-1.5658 0,-1.83 1.899,-3.3166 3.7833,-3.4231 z m -45.8576,0.8635 -3.5435,4.0406 c -3.3955,3.8724 -5.0114,4.5393 -8.6868,3.5869 -4.3306,-1.1224 1.3106,-5.9109 8.2486,-7.0017 z m 26.573,4.6354 c 1.997,0 3.6771,0.3152 4.9217,0.9813 4.0929,2.1902 5.7556,10.8387 2.8949,15.057 -0.8168,1.2047 -4.3387,5.2062 -7.8259,8.8925 -3.4874,3.686 -7.0904,7.9709 -8.0067,9.5219 -0.9162,1.5512 -2.1001,2.8205 -2.6304,2.8205 -1.5136,0 -8.5918,-4.8107 -11.2287,-7.6316 -3.0204,-3.2309 -5.8937,-9.6792 -6.5304,-14.6549 l -0.4925,-3.8447 5.5914,-3.2815 c 8.4743,-4.9728 17.3155,-7.8545 23.3066,-7.8605 z m 20.2319,4.5982 c 0.057,-0.01 0.097,0 0.1193,0.025 0.1745,0.175 1.3915,2.4572 2.7042,5.0711 3.4965,6.9622 3.7234,10.5057 1.0475,16.3509 -2.9057,6.3464 -9.2571,14.7276 -11.931,15.7443 -3.2463,1.2343 -14.2112,0.3341 -17.0119,-1.3969 -1.3697,-0.8464 2.4905,-6.4018 9.8573,-14.1841 6.9332,-7.3245 9.5994,-11.7299 9.5994,-15.8631 0,-1.4232 0.9421,-2.854 2.7083,-4.1114 1.3034,-0.928 2.5083,-1.6 2.9069,-1.6356 z m -54.3115,26.0775 c 4.9375,0.1269 5.3253,0.3123 9.4284,4.5108 2.3533,2.4085 6.5823,5.5407 9.247,7.2125 6.9732,4.3749 9.8846,10.5296 9.8846,10.5296 -1.3089,1.8178 -1.2395,2.6421 -1.2149,3.1424 0.052,1.0506 1.201,1.3038 1.8304,1.3059 1.2305,-0.02 2.0511,-1.2 2.0511,-1.2 l 0.7891,0.7948 c -3.3599,1.6878 -6.765,2.454 -10.1607,2.6655 -0.322,-0.342 -0.6396,-0.6214 -0.8707,-0.6919 -0.5333,-0.1627 -2.6573,-0.2939 -3.99,0.649 -2.848,-0.2427 -5.6705,-0.7979 -8.4325,-1.5074 -11.0497,-3.0377 -15.6646,-10.2783 -14.2906,-22.4219 0.194,-5.4655 0.6152,-5.1217 5.7288,-4.9893 z m -24.5168,6.5954 v 0 c -3.9416,0 -12.9698,2.7096 -18.0888,5.4291 -4.7966,2.5483 -14.6084,11.7578 -23.472,22.0308 -2.3121,2.6797 -6.4324,6.6794 -9.1565,8.8888 -5.9067,4.7905 -6.6404,7.8205 -3.6034,14.8802 l 1.8929,4.3998 -2.2443,3.4101 c -4.3703,6.6401 -8.5518,19.4107 -10.3632,31.6503 -3.1547,21.3154 -4.0573,48.2367 -2.3849,71.1093 0.6385,8.732 5.6855,13.5027 16.3608,15.4647 5.2224,0.96 13.4891,4.9317 13.6147,6.5407 0.038,0.4872 0.2166,1.683 0.3999,2.6572 1.1593,6.1981 2.6408,32.484 2.4805,57.1371 -0.1438,22.1107 -0.9275,27.6274 2.8965,32.7747 1.4774,2.1906 3.7572,5.8486 5.0658,8.1282 1.3086,2.2797 3.0055,4.7708 3.7708,5.5361 v 0 c 2.2042,2.2041 5.5629,1.7792 6.2064,-0.7855 0.5672,-2.2593 -1.8844,-7.3114 -8.3442,-17.1937 -2.6268,-3.2571 -3.0418,-10.4195 -2.9502,-18.1586 0.087,-7.3726 -0.3959,-25.5623 -1.0744,-40.4218 -0.6782,-14.8592 -1.1316,-27.1306 -1.0061,-27.2687 0.1251,-0.1389 1.974,0.1506 4.1088,0.6429 4.9478,1.1413 19.463,1.2013 22.3779,0.093 1.5985,-0.6077 2.3929,-1.7431 2.8226,-4.0339 0.4884,-2.6026 1.0526,-2.0816 2.5917,-1.8606 1.652,0.2355 1.8491,-0.021 2.3543,5.4114 0.3171,3.4102 0.8739,20.75 1.2376,38.5325 0.6874,33.6105 0.9921,36.2439 4.8168,41.615 2.5759,3.6178 8.5183,6.1656 16.4568,7.0559 7.7247,0.8663 11.0154,0.1118 11.0154,-2.5244 0,-3.0621 -2.2841,-4.2506 -9.4666,-4.9273 -9.3636,-0.8821 -13.749,-2.2598 -14.2079,-4.4633 -0.2024,-0.9718 -0.9132,-17.9066 -1.5798,-37.6329 -0.6666,-19.7264 -1.4656,-37.7075 -1.7751,-39.9583 -0.559,-4.0647 -0.543,-4.0967 2.3255,-4.6705 3.3908,-0.6779 15.8441,-7.5296 20.2189,-11.1239 3.7167,-1.7463 2.6303,-3.8021 0.6604,-17.0046 -2.7806,-16.9038 -3.7628,-25.5757 -2.9011,-25.5757 1.2811,0 5.84,2.7393 5.84,3.5088 0,0.4429 -0.4252,1.9228 -0.9447,3.2892 -1.3514,3.5545 -0.276,7.8175 2.8774,11.4092 2.295,2.6139 3.2512,3.0783 5.9944,2.9176 1.8344,-0.1082 4.1393,0.4203 5.2622,1.2067 1.3459,0.9429 3.11,1.2501 5.4069,0.942 l 3.4086,-0.4573 -0.4868,3.6339 c -0.6744,5.0273 1.0449,8.5752 5.7129,11.7868 5.3731,3.6969 11.4623,5.1318 21.6917,5.1568 9.2542,0.012 15.3472,-1.6111 16.0729,-4.2798 2.2568,-8.3006 2.4224,-10.5924 1.0097,-13.9738 -3.3289,-7.9694 -10.4981,-11.8678 -23.044,-12.53 -4.3845,-0.2314 -9.425,-0.018 -11.2009,0.4739 -2.5864,0.7166 -3.4996,0.6247 -4.5878,-0.4636 -1.1805,-1.1807 -1.1945,-1.6091 -0.108,-3.2675 1.0981,-1.6756 1.052,-2.2817 -0.3747,-4.9661 -0.8937,-1.6818 -3.3745,-4.4035 -5.5129,-6.0477 -3.7397,-2.875 -4.1127,-2.97 -9.7683,-2.4959 -5.6732,0.4759 -6.1094,0.3621 -12.3822,-3.2117 -7.6076,-4.3341 -7.5321,-4.1504 -8.4352,-20.5383 l -0.586,-10.6335 4.1243,-1.1033 c 2.2688,-0.6066 6.5466,-1.4284 8.2894,-3.0256 4.2098,-3.7454 2.3416,-3.2936 0.799,-8.7323 -1.0558,-3.7194 -1.3319,-8.6579 -1.1938,-21.2344 0.1582,-14.3314 -0.02,-16.7547 -1.4159,-19.3207 -1.586,-2.9148 -5.0437,-3.7377 -4.2013,-1 0.2152,0.7018 0.2277,6.6575 0.027,13.2343 -0.6245,20.439 -0.6651,26.6715 0.7627,29.8582 1.9858,4.432 -4.6573,4.8336 -7.1897,5.3852 -7.6098,1.6508 -7.7231,1.6505 -7.7231,-0.027 0,-2.2367 3.1695,-14.8183 5.3573,-21.2674 0.9511,-2.8035 1.7157,-5.9924 1.7157,-7.0864 -0.016,-2.3028 -1.4065,-4.8508 -2.2092,-4.0478 -1.7268,1.7265 -8.7814,28.663 -11.0365,42.1405 -0.5908,3.5322 -1.3376,6.4146 -1.6588,6.4146 -0.3211,0 -2.1488,-2.4368 -4.0618,-5.4058 -3.0029,-4.6602 -3.3287,-5.6365 -2.3859,-7.1464 1.7954,-2.8748 13.4758,-37.0017 14.7965,-43.2309 1.4694,-6.9307 1.6049,-12.9804 0.3095,-13.7811 -1.3759,-0.8505 -1.4717,-0.6396 -3.8581,8.5075 -1.1995,4.5976 -4.5444,14.1391 -7.4332,21.2034 -2.889,7.064 -5.9695,15.0365 -6.8455,17.7162 l -1.5937,4.872 -1.5844,-3.5434 c -2.4489,-5.4767 -4.144,-14.7725 -5.1687,-28.3456 -0.9619,-12.7413 -2.6566,-22.0243 -4.3248,-23.6926 -0.6712,-0.671 -1.3791,-0.5877 -2.4335,0.2873 -1.3458,1.1172 -1.4262,3.0765 -0.8505,20.6639 0.5335,16.2914 0.9607,20.5502 2.6453,26.3658 1.5934,5.5019 1.7568,6.9355 0.7906,6.9355 -0.6699,0 -6.5222,-2.5558 -13.0049,-5.6803 -10.4864,-5.0537 -12.3698,-6.3168 -17.0718,-11.4483 -4.8202,-5.2605 -9.062,-12.1925 -10.4805,-17.1272 -0.4479,-1.5585 0.1815,-2.4301 3.312,-4.5837 2.1255,-1.4626 7.6236,-6.7576 12.2178,-11.7667 14.1409,-15.4187 19.0654,-19.0103 30.1708,-22.0069 5.7013,-1.5384 7.651,-1.7298 9.8412,-0.9664 3.1666,1.1042 3.6955,0.8338 2.9508,-1.5125 -0.6307,-1.9874 -4.0491,-3.744 -7.2854,-3.744 z m 79.3057,6.1139 0.9478,3.3662 c 2.7902,9.9134 2.3046,13.585 -2.0712,15.6615 -4.1021,1.9465 -7.5325,1.5062 -12.2256,-1.5689 -1.879,-1.2311 -10.4598,-11.3865 -10.4598,-12.3791 0,-0.176 4.0172,-0.2153 8.9265,-0.085 7.8672,0.4422 9.956,-0.6696 14.8823,-4.995 z m -31.6156,7.1752 c -2.1906,0 -4.9488,3.1134 -4.2866,4.839 0.7274,1.8957 3.5401,1.6999 5.4199,-0.3772 1.8492,-2.0433 1.2349,-4.4618 -1.1333,-4.4618 z m 13.6183,32.9324 c 0.8827,-0.062 1.7049,0.3352 2.298,0.9054 0.7909,0.7601 1.1742,1.8283 0.7483,2.53 -0.8468,1.3953 -3.5674,1.4255 -5.209,0.6904 -1.6416,-0.735 -2.2041,-2.2351 1.2661,-3.901 0.3013,-0.1329 0.6024,-0.2043 0.8966,-0.2248 z m -4.5579,6.3469 c 0.2001,0.01 0.3799,0.054 0.5266,0.1447 0.8103,0.5004 0.7779,0.841 -0.1354,1.4195 -0.6611,0.4188 -1.7856,0.7752 -2.4991,0.7752 -1.082,0.011 -1.0592,-0.2244 0.136,-1.4196 0.5924,-0.6001 1.3717,-0.9403 1.9719,-0.9198 z m -107.2141,7.5189 v 0 c 0.555,-0.039 1.3885,0.8194 2.7223,2.744 4.8347,6.9767 10.7972,11.5469 22.1537,16.9794 6.0104,2.8749 11.7061,5.227 12.6566,5.227 2.8901,0 7.2973,1.8689 8.1457,3.4541 0.4702,0.8783 0.4895,5.5054 0.047,11.2014 -0.4146,5.3375 -1.0238,24.0545 -1.3534,41.5933 -0.33,17.539 -0.8577,33.8815 -1.1731,36.3177 -0.1481,5.0935 -1.1979,4.4464 -5.888,4.5795 -7.824,0.2225 -15.7289,-1.8632 -23.859,-6.2947 -4.6578,-2.5391 -9.347,-4.3232 -13.2535,-5.0431 -3.325,-0.6126 -7.0087,-1.872 -8.186,-2.7982 -2.8434,-2.2365 -5.6694,-7.8589 -4.7847,-9.5193 0.3805,-0.7142 0.925,-11.2638 1.2102,-23.4436 0.501,-21.4017 2.9265,-48.3758 5.0834,-56.5273 1.5333,-5.7945 5.2031,-16.8729 6.0084,-18.1384 0.1314,-0.2065 0.2853,-0.3192 0.4703,-0.3323 z m 74.5769,27.0495 c 0.034,0.064 -0.1649,5.1849 -0.4429,11.3797 l -0.5049,11.2634 -3.3735,-2.8479 -3.3729,-2.8484 1.0863,-8.1153 c 1.0831,-8.0932 1.0933,-8.1156 3.8158,-8.5312 1.5014,-0.2301 2.756,-0.3633 2.7921,-0.3003 z m -23.5991,10.3033 c 0.3119,0 1.3142,1.2646 2.2272,2.8101 0.9129,1.5457 2.9637,4.253 4.5568,6.0167 l 2.8965,3.206 -0.8247,9.7069 c -0.9672,11.3876 -2.2534,18.2373 -4.1848,22.2876 -1.5974,3.3497 -2.0498,3.508 -3.9109,1.3699 -1.0455,-1.2013 -1.4642,-4.9405 -1.8593,-16.6088 -0.5074,-14.9913 0.02,-28.7884 1.0992,-28.7884 z m 15.8791,17.7425 c 0.3152,0.015 2.2465,1.5101 4.2928,3.3218 l 3.7212,3.2954 0.9617,11.9585 c 0.5289,6.5768 1.5686,16.093 2.3104,21.147 0.8814,11.6396 -0.9003,11.9743 -8.3286,15.8796 -9.9316,5.1936 -9.298,5.3733 -10.3038,-2.9238 -0.2953,-2.4361 -1.1992,-7.1064 -2.0092,-10.3792 -1.3371,-5.4074 -1.3452,-6.0946 -0.083,-7.5293 4.2078,-4.7836 7.1974,-14.7349 8.2584,-27.4887 0.3343,-4.0185 0.8654,-7.305 1.1803,-7.2813 z m 60.095,27.572 c 1.1326,-0.028 2.3234,0 3.5559,0.1008 3.8884,0.3088 6.8758,1.2125 10.1865,3.0815 6.1354,3.4637 6.3613,4.9501 1.0294,6.767 -8.3552,2.8469 -19.8585,1.2616 -24.4962,-3.376 -3.2875,-3.2876 1.7968,-6.377 9.7244,-6.5733 z m 0.3783,1.3002 v 0 c -0.9713,0.021 -1.8779,0.153 -2.6381,0.4181 -3.2584,1.1358 -3.9615,3.9344 -0.7942,3.162 1.0963,-0.2675 3.3885,-0.1525 5.0937,0.2558 4.2418,1.0149 7.9721,1.0832 7.9721,0.1453 0,-2.1051 -5.4246,-4.0755 -9.6335,-3.9822 z m -13.3971,9.2299 4.0406,2.5627 c 7.5906,4.8137 16.0373,5.502 26.3555,2.1476 2.3457,-0.7616 4.4859,-1.1656 4.7563,-0.895 1.1021,1.1021 -0.713,4.768 -2.8412,5.7376 -2.1217,0.9668 -14.009,1.2434 -19.0247,0.4429 -3.562,-0.5685 -10.0569,-3.0786 -11.7367,-4.5356 -0.8525,-0.7397 -1.5498,-2.2707 -1.5498,-3.4024 z m -62.8928,1.8397 c 0.02,0 0.042,0.02 0.064,0.059 0.9168,1.6713 2.5945,13.2096 2.5946,17.8454 0,2.6875 -0.4234,4.1049 -1.3291,4.4525 -0.7307,0.2814 -1.3283,0.2244 -1.3281,-0.1256 0,-0.3503 -0.1292,-5.7436 -0.2873,-11.9853 -0.1483,-5.8518 -0.019,-10.2464 0.2863,-10.2464 z m 84.2564,104.4944 c -2.4603,0.1087 -5.6132,1.1686 -6.0529,2.3141 -0.3204,0.8352 0.1274,1.8967 1.1017,2.6091 2.0082,1.4694 3.2148,1.5028 6.1335,0.1731 2.4796,-1.1297 3.0326,-4.0442 0.9209,-4.8545 -0.5401,-0.2072 -1.2832,-0.277 -2.1032,-0.2408 z m -18.0945,0.8201 v 0 c -3.3714,0.016 -5.5023,1.1804 -4.6592,2.5451 0.7204,1.1646 5.7379,1.2885 7.4822,0.1834 1.8993,-1.2028 0.305,-2.7555 -2.823,-2.7295 z m 8.6651,3.559 c -1.3689,-0.019 -3.2363,0.3864 -5.2302,1.2195 -2.2121,0.9242 -3.144,1.9776 -3.6044,4.0737 -0.3688,1.6793 -0.2346,3.214 0.3312,3.7796 1.1508,1.1503 5.8055,1.2745 9.3245,0.2486 1.9146,-0.557 2.4005,-0.478 1.9146,0.3085 -0.3591,0.5815 -0.4322,1.6359 -0.1607,2.3435 1.1052,2.8803 10.2924,0.837 10.2924,-2.2888 0,-1.3564 -3.1604,-2.5598 -5.2721,-2.0076 -1.7001,0.4449 -1.9289,0.2539 -1.4593,-1.2258 0.4156,-1.3094 -0.01,-2.0105 -1.6707,-2.7683 -1.2248,-0.5582 -2.2272,-1.6214 -2.2272,-2.3626 0,-0.8598 -0.8704,-1.3014 -2.2392,-1.3198 z" transform="translate(6.7434473,321.1129) translate(5913.6347,-1748.3779)"/>
</svg>